<?xml version="1.0" standalone="no"?>
<!DOCTYPE svg PUBLIC "-//W3C//DTD SVG 20010904//EN"
 "http://www.w3.org/TR/2001/REC-SVG-20010904/DTD/svg10.dtd">
<svg version="1.0" xmlns="http://www.w3.org/2000/svg"
 width="360.000000pt" height="180.000000pt" viewBox="0 0 360.000000 180.000000"
 preserveAspectRatio="xMidYMid meet">

<g transform="translate(0.000000,180.000000) scale(0.100000,-0.100000)"
fill="#000000" stroke="none">
<path d="M2030 1764 c-184 -21 -298 -53 -435 -121 -165 -84 -288 -175 -540
-405 -241 -219 -333 -284 -474 -336 -106 -38 -288 -41 -458 -6 -22 4 -33 3
-33 -5 0 -23 127 -139 190 -173 183 -101 460 -135 676 -82 l71 17 84 -85 c92
-92 179 -142 299 -173 70 -18 251 -22 305 -7 27 8 24 10 -56 35 -176 55 -327
197 -341 321 -3 27 1 30 92 67 52 21 97 39 100 39 3 0 18 -29 34 -64 32 -75
100 -145 173 -178 74 -34 209 -32 285 4 110 51 183 152 196 272 l7 61 250 -3
c138 -1 263 -6 279 -10 l28 -8 -50 -27 c-88 -48 -172 -117 -354 -293 -257
-249 -352 -315 -533 -370 -82 -25 -105 -28 -245 -28 -138 0 -164 3 -240 26
l-85 26 62 -58 c72 -68 172 -120 288 -151 63 -17 108 -22 215 -22 161 1 247
20 385 87 126 60 232 144 440 346 238 233 284 267 420 312 64 21 86 23 275 23
113 -1 219 -4 235 -8 28 -7 26 -3 -25 44 -172 158 -489 313 -804 394 -387 98
-845 114 -1140 39 -32 -8 -60 -13 -62 -11 -3 2 15 20 38 39 240 192 462 282
767 308 105 10 282 0 364 -19 48 -12 47 -2 -6 30 -101 64 -210 106 -345 134
-74 15 -268 27 -332 19z m20 -854 c0 -67 -63 -146 -136 -170 -46 -16 -116 -6
-160 21 -32 19 -84 92 -84 117 0 6 17 16 38 21 50 14 235 39 295 40 46 1 47 0
47 -29z"/>
</g>
</svg>
